<svg id="Layer_1" enable-background="new 0 0 510 510" height="512" viewBox="0 0 510 510" width="512" xmlns="http://www.w3.org/2000/svg"><g><g><path d="m426.917 66.664-341.032 50.242c0 140.833 118.763 254.972 259.596 254.972 60.017 0 115.159-27.944 158.719-62.639.177-1.087 5.8-23.477 5.8-54.239 0-74.593-32.028-141.706-83.083-188.336z" fill="#5e6b75"/><path d="m345.459 364.679c-140.833 0-255-114.167-255-255l-7.387-42.985c-51.044 46.628-83.072 113.723-83.072 188.306 0 48.926 13.779 94.634 37.668 133.455l434.661.013c14.763-23.995 25.685-50.675 31.871-79.229-43.56 34.695-98.725 55.44-158.741 55.44z" fill="#4d5961"/></g><g><path d="m255 0c-13.308 0-25.917 1.024-37.783 2.784v432.199h209.695v-368.314c-45.337-41.408-105.672-66.669-171.912-66.669z" fill="#f9f6f6"/><path d="m96.259 55.441c-.006.005-.011.01-.017.014-4.518 3.599-8.894 7.366-13.154 11.257v368.271h135.505v-432.398c-76.455 10.916-122.189 52.774-122.334 52.856z" fill="#efe7e4"/><g><path d="m215.837 93.912h141.334v25h-141.334z" fill="#efe7e4"/></g><g><path d="m158.63 93.912h59.963v25h-59.963z" fill="#e2dfe2"/></g><g><path d="m215.837 40.908h141.334v25h-141.334z" fill="#efe7e4"/></g><g><path d="m158.63 40.908h59.963v25h-59.963z" fill="#e2dfe2"/></g><path d="m437.279 433.3c13.258-13.544 25.034-28.572 35.041-44.837v-172.025h-282.135l-13.32 120.359 6.629 96.503z" fill="#f4dd45"/><path d="m293.594 431.822c-57.112 0-103.41-46.298-103.41-103.409v-111.975l-17.753-52.844h-134.752v224.854c44.875 72.923 125.415 121.552 217.321 121.552 71.766 0 137.137-29.814 183.726-78.178z" fill="#ecbe6b"/></g><g><path d="m509.167 409.299c0 12.515-2.298 24.494-6.494 35.537-14.334 37.722-50.822 45.99-93.572 45.99-55.265 0-78.845-22.68-78.845-77.945 0-33.691-4.572-67.076 20.949-85.209 16.342-11.612 36.322-18.439 57.896-18.439 55.265 0 100.066 44.801 100.066 100.066z" fill="#aad540"/></g><g><path d="m444.77 463.273c-55.265 0-100.066-44.801-100.066-100.066 0-12.516 2.304-24.491 6.501-35.534-25.52 18.134-42.171 47.935-42.171 81.626 0 55.265 44.801 100.066 100.066 100.066 42.749 0 79.231-26.81 93.565-64.532-16.341 11.613-36.32 18.44-57.895 18.44z" fill="#6ec186"/></g><g><path d="m366.44 394.299h85.321v30h-85.321z" fill="#ffebb4"/></g><g><path d="m394.101 366.639h30v85.321h-30z" fill="#f9f6f6"/></g></g></svg>