<?xml version="1.0" encoding="iso-8859-1"?>
<!-- Generator: Adobe Illustrator 19.0.0, SVG Export Plug-In . SVG Version: 6.00 Build 0)  -->
<svg version="1.1" id="Capa_1" xmlns="http://www.w3.org/2000/svg" xmlns:xlink="http://www.w3.org/1999/xlink" x="0px" y="0px"
	 viewBox="0 0 512 512" style="enable-background:new 0 0 512 512;" xml:space="preserve">
<rect x="119.47" y="85.33" style="fill:#D0E2ED;" width="273.06" height="86.875"/>
<path style="fill:#9A5F5B;" d="M187.734,128.002H224h123.733l44.799-42.668V57.382c0-3.414-2.767-6.181-6.181-6.181H221.867
	l-34.132,0.001h-62.087c-3.414,0-6.181,2.767-6.181,6.181V85.33l44.802,42.673h23.465"/>
<g>
	<path style="fill:#804C49;" d="M161.327,51.202v119.639c0,4.267-3.458,7.726-7.726,7.726c-4.268,0-7.726-3.459-7.726-7.726V51.202
		H161.327z"/>
	<path style="fill:#804C49;" d="M263.725,51.202v102.399c0,4.267-3.458,7.726-7.726,7.726s-7.726-3.459-7.726-7.726V51.202H263.725z
		"/>
	<path style="fill:#804C49;" d="M297.86,51.202v102.399c0,4.267-3.458,7.726-7.726,7.726s-7.726-3.459-7.726-7.726V51.202H297.86z"
		/>
	<path style="fill:#804C49;" d="M331.995,51.202v102.399c0,4.267-3.458,7.726-7.726,7.726c-4.268,0-7.726-3.459-7.726-7.726V51.202
		H331.995z"/>
	<path style="fill:#804C49;" d="M366.13,51.202v118.265c0,4.267-3.458,7.726-7.726,7.726s-7.726-3.459-7.726-7.726V51.202
		C350.678,51.202,366.13,51.202,366.13,51.202z"/>
</g>
<g>
	<rect x="248.274" y="128" style="fill:#7D8F9E;" width="15.453" height="44.211"/>
	<rect x="282.404" y="128" style="fill:#7D8F9E;" width="15.453" height="44.211"/>
	<rect x="316.544" y="128" style="fill:#7D8F9E;" width="15.453" height="44.211"/>
</g>
<rect x="187.73" y="76.244" style="fill:#D0E2ED;" width="34.13" height="82.507"/>
<path style="fill:#9A5F5B;" d="M217.349,0H192.25c-2.495,0-4.517,2.022-4.517,4.517v72.284h34.134V4.517
	C221.866,2.022,219.843,0,217.349,0z"/>
<g>
	<path style="fill:#FDBE40;" d="M221.867,69.075h-34.132c-4.268,0-7.726,3.459-7.726,7.726c0,4.267,3.458,7.726,7.726,7.726h34.132
		c4.268,0,7.726-3.459,7.726-7.726C229.593,72.534,226.134,69.075,221.867,69.075z"/>
	<path style="fill:#FDBE40;" d="M409.602,231.279V91.511c0-3.414-2.768-6.181-6.182-6.181l-40.192,0.004
		c-2.836,0-5.308,1.931-5.996,4.682l-14.726,58.905c-0.688,2.752-3.161,4.682-5.997,4.682H175.493c-2.836,0-5.309-1.931-5.997-4.682
		L154.77,90.012c-0.688-2.752-3.161-4.682-5.997-4.682H108.58c-3.414,0-6.181,2.767-6.181,6.181v139.768H409.602z"/>
</g>
<g>
	<path style="fill:#FFA912;" d="M134.167,90.011l14.726,58.909c0.688,2.752,3.161,4.682,5.997,4.682h20.604
		c-2.836,0-5.309-1.931-5.997-4.682L154.77,90.011c-0.688-2.752-3.161-4.682-5.997-4.682H128.17
		C131.006,85.33,133.478,87.259,134.167,90.011z"/>
	<path style="fill:#FFA912;" d="M403.42,85.33l-20.563,0.002c3.395,0.022,6.142,2.778,6.142,6.179v139.768h20.604V91.511
		C409.602,88.097,406.834,85.33,403.42,85.33z"/>
</g>
<path style="fill:#D0E2ED;" d="M409.602,494.932v-290.13H102.399v290.13c0,9.426,7.642,17.068,17.068,17.068h273.068
	C401.96,512,409.602,504.358,409.602,494.932z"/>
<circle style="fill:#87D0ED;" cx="256" cy="341.34" r="34.13"/>
<g>
	<path style="fill:#394D5C;" d="M326.045,401.877h-140.09c-4.268,0-7.726,3.459-7.726,7.726v34.132c0,4.267,3.458,7.726,7.726,7.726
		h140.09c4.267,0,7.726-3.459,7.726-7.726v-34.132C333.771,405.336,330.313,401.877,326.045,401.877z M318.319,436.01H193.681
		V417.33h124.637V436.01z"/>
	<path style="fill:#394D5C;" d="M341.334,470.146H170.666c-4.268,0-7.726,3.459-7.726,7.726c0,4.267,3.458,7.726,7.726,7.726
		h170.668c4.268,0,7.726-3.459,7.726-7.726C349.06,473.605,345.602,470.146,341.334,470.146z"/>
</g>
<path style="fill:#AABFCF;" d="M388.998,204.802v290.13c0,9.426-7.642,17.068-17.068,17.068h20.604
	c9.426,0,17.068-7.642,17.068-17.068v-290.13H388.998z"/>
<path style="fill:#DC1C4A;" d="M409.602,358.403L259.795,241.888c-2.232-1.736-5.358-1.736-7.589,0L102.398,358.403l0.001-153.601
	h307.203V358.403z"/>
<polygon style="fill:#B31E48;" points="409.602,358.403 409.602,204.802 388.998,204.802 388.998,342.379 "/>
<g>
</g>
<g>
</g>
<g>
</g>
<g>
</g>
<g>
</g>
<g>
</g>
<g>
</g>
<g>
</g>
<g>
</g>
<g>
</g>
<g>
</g>
<g>
</g>
<g>
</g>
<g>
</g>
<g>
</g>
</svg>
