<svg height="512pt" viewBox="0 0 512 512" width="512pt" xmlns="http://www.w3.org/2000/svg"><path d="m512 256c0 67.4375-26.082031 128.792969-68.703125 174.519531l-.007813.011719c-46.730468 50.121094-113.351562 81.46875-187.289062 81.46875-40.730469 0-79.222656-9.507812-113.414062-26.425781-27.898438-13.8125-52.914063-32.546875-73.894532-55.085938-42.621094-45.714843-68.691406-107.0625-68.691406-174.488281 0-141.386719 114.613281-256 256-256s256 114.613281 256 256zm0 0" fill="#dd3d88"/><path d="m411.945312 337.714844c-1.09375 12.648437-9.570312 23.179687-21.144531 27.171875-2.285156.800781-4.703125 1.332031-7.199219 1.585937-85.074218 8.402344-170.136718 8.402344-255.210937 0-15.125-1.496094-27.042969-13.601562-28.34375-28.757812-8.015625-93.277344-8.015625-186.554688 0-279.832032 1.304687-15.15625 13.21875-27.261718 28.34375-28.757812 22.867187-2.253906 45.746094-3.910156 68.613281-4.953125 62.195313-2.839844 124.390625-1.195313 186.597656 4.953125 15.132813 1.496094 27.039063 13.601562 28.34375 28.757812 8.011719 93.277344 8.011719 186.554688 0 279.832032zm0 0" fill="#add4d3"/><path d="m411.945312 337.714844c-1.09375 12.648437-9.570312 23.179687-21.144531 27.171875-62.195312 2.835937-124.398437 1.191406-186.59375-4.957031-15.136719-1.492188-27.050781-13.597657-28.34375-28.742188-8.015625-93.28125-8.015625-186.566406 0-279.84375 1.082031-12.648438 9.558594-23.171875 21.140625-27.171875 62.195313-2.839844 124.390625-1.195313 186.597656 4.953125 15.132813 1.496094 27.039063 13.601562 28.34375 28.757812 8.011719 93.277344 8.011719 186.554688 0 279.832032zm0 0" fill="#d3f0f0"/><path d="m443.746094 422.535156c-.144532 2.664063-.292969 5.328125-.449219 7.984375l-.007813.011719c-46.730468 50.121094-113.351562 81.46875-187.289062 81.46875-40.730469 0-79.222656-9.507812-113.414062-26.425781-27.898438-13.8125-52.914063-32.546875-73.894532-55.085938-.15625-2.644531-.304687-5.296875-.449218-7.953125-3.730469-69.035156-3.730469-138.070312 0-207.109375 1.097656-20.363281 2.527343-40.707031 4.285156-61.0625 1.535156-17.816406 15.546875-32.058593 33.339844-33.824219 18.476562-1.816406 36.949218-3.300781 55.421874-4.460937 81.609376-5.078125 163.214844-3.59375 244.832032 4.460937 17.804687 1.765626 31.816406 16.007813 33.34375 33.824219 1.753906 20.355469 3.164062 40.699219 4.28125 61.0625 3.730468 69.039063 3.730468 138.074219 0 207.109375zm0 0" fill="#141318"/><path d="m443.289062 430.53125c-46.730468 50.121094-113.351562 81.46875-187.289062 81.46875-40.730469 0-79.222656-9.507812-113.414062-26.425781-9.371094-113.234375-9.183594-226.480469.542968-339.71875 1.078125-12.546875 8.046875-23.414063 18.160156-29.777344 81.609376-5.078125 163.214844-3.59375 244.832032 4.460937 17.804687 1.765626 31.816406 16.007813 33.34375 33.824219 7.910156 92.066407 9.183594 184.109375 3.824218 276.167969zm0 0" fill="#3d3d3d"/><path d="m443.746094 422.539062c-2.378906.285157-4.828125.484376-7.347656.59375-98.082032 4.222657-196.148438 5.003907-294.230469 2.332032-22.183594-.59375-44.382813-1.375-66.578125-2.332032-2.519532-.109374-4.96875-.308593-7.347656-.59375-3.726563-69.042968-3.726563-138.074218 0-207.117187 2.378906-.285156 4.828124-.480469 7.347656-.59375 22.199218-.957031 44.40625-1.734375 66.589844-2.339844 98.078124-2.671875 196.136718-1.894531 294.21875 2.339844 2.519531.113281 4.96875.308594 7.347656.59375 3.726562 69.042969 3.726562 138.074219 0 207.117187zm0 0" fill="#fbcd58"/><path d="m138.507812 212.597656c-3.753906 70.921875-3.753906 141.84375 0 212.753906-20.964843-.570312-41.941406-1.320312-62.917968-2.21875-2.519532-.109374-4.96875-.308593-7.347656-.59375-3.726563-69.042968-3.726563-138.074218 0-207.117187 2.378906-.285156 4.828124-.480469 7.347656-.59375 20.976562-.902344 41.953125-1.648437 62.917968-2.230469zm0 0" fill="#f98c3c"/><path d="m444.304688 411.558594c.332031-6.851563.628906-13.714844.882812-20.566406-.253906 6.863281-.550781 13.714843-.882812 20.566406zm0 0" fill="#f98c3c"/><path d="m83.722656 288.472656c0-2.40625 2.210938-4.523437 5.582032-4.523437h19.917968c12.699219 0 22.707032 5.96875 22.707032 22.132812v.480469c0 16.164062-10.390626 22.324219-23.671876 22.324219h-9.523437v20.78125c0 3.082031-3.753906 4.621093-7.507813 4.621093-3.75 0-7.503906-1.539062-7.503906-4.621093zm15.011719 8.5625v20.304688h9.523437c5.390626 0 8.660157-3.082032 8.660157-9.625v-1.058594c0-6.542969-3.269531-9.621094-8.660157-9.621094zm0 0" fill="#141318"/><g fill="#3d3d3d"><path d="m138.46875 288.472656c0-2.40625 1.828125-4.523437 4.617188-4.523437h19.917968c13.183594 0 23.671875 4.910156 23.671875 20.59375 0 10.777343-4.910156 16.933593-11.644531 19.53125l11.738281 21.265625c.386719.578125.480469 1.25.480469 1.730468 0 3.753907-5.003906 7.796876-9.429688 7.796876-1.921874 0-3.75-.769532-4.808593-2.789063l-13.183594-25.597656h-6.351563v23.191406c0 3.078125-3.75 4.617187-7.503906 4.617187s-7.507812-1.539062-7.507812-4.617187v-61.199219zm15.011719 8.5625v17.898438h9.523437c5.390625 0 8.660156-2.214844 8.660156-8.949219s-3.269531-8.949219-8.660156-8.949219zm0 0"/><path d="m193.890625 332.15625v-25.496094c0-16.550781 10.296875-22.710937 23.574219-22.710937s23.667968 6.160156 23.667968 22.710937v25.496094c0 16.550781-10.390624 22.707031-23.667968 22.707031s-23.574219-6.15625-23.574219-22.707031zm32.234375-25.496094c0-6.640625-3.273438-9.625-8.660156-9.625-5.390625 0-8.566406 2.984375-8.566406 9.625v25.496094c0 6.640625 3.175781 9.625 8.566406 9.625 5.386718 0 8.660156-2.984375 8.660156-9.625zm0 0"/><path d="m291.359375 283.949219c3.175781 0 4.519531 3.464843 4.519531 6.640625 0 3.65625-1.632812 6.832031-4.519531 6.832031h-13.28125v52.246094c0 3.082031-3.75 4.621093-7.503906 4.621093-3.753907 0-7.503907-1.539062-7.503907-4.621093v-52.246094h-13.28125c-2.886718 0-4.519531-3.175781-4.519531-6.832031 0-3.175782 1.34375-6.640625 4.519531-6.640625zm0 0"/><path d="m316.855469 313.296875h14.429687c2.890625 0 4.523438 2.792969 4.523438 5.871094 0 2.597656-1.347656 5.675781-4.523438 5.675781h-14.429687v16.359375h25.785156c2.886719 0 4.523437 3.078125 4.523437 6.636719 0 3.082031-1.347656 6.449218-4.523437 6.449218h-34.253906c-3.273438 0-6.542969-1.539062-6.542969-4.621093v-61.097657c0-3.082031 3.269531-4.621093 6.542969-4.621093h34.253906c3.175781 0 4.523437 3.371093 4.523437 6.449219 0 3.558593-1.636718 6.640624-4.523437 6.640624h-25.785156zm0 0"/><path d="m353.703125 288.472656c0-3.175781 3.75-4.523437 7.503906-4.523437 3.753907 0 7.507813 1.347656 7.507813 4.523437v61.195313c0 3.082031-3.753906 4.621093-7.507813 4.621093-3.75 0-7.503906-1.539062-7.503906-4.621093zm0 0"/><path d="m412.394531 350.246094-18.28125-33.289063v32.714844c0 3.078125-3.75 4.617187-7.503906 4.617187s-7.507813-1.539062-7.507813-4.617187v-61.101563c0-3.175781 3.753907-4.621093 7.507813-4.621093 5.386719 0 7.40625.484375 11.0625 7.507812l15.589844 29.730469v-32.714844c0-3.175781 3.75-4.523437 7.503906-4.523437s7.507813 1.347656 7.507813 4.523437v61.195313c0 3.082031-3.753907 4.621093-7.507813 4.621093-3.460937 0-6.542969-.671874-8.371094-4.042968zm0 0"/></g><path d="m411.628906 168.863281c0-13.722656-7.941406-24.851562-17.738281-24.851562s-17.738281 11.128906-17.738281 24.851562c0 13.726563 7.941406 24.851563 17.738281 24.851563s17.738281-11.125 17.738281-24.851563zm0 0" fill="#545454"/></svg>