<svg height="512pt" viewBox="0 0 512 512" width="512pt" xmlns="http://www.w3.org/2000/svg"><path d="m512 256c0 74.46875-31.808594 141.519531-82.566406 188.289062-8.964844 8.265626-18.515625 15.894532-28.589844 22.8125-37.511719 25.796876-82.242188 41.847657-130.550781 44.5-4.730469.261719-9.496094.398438-14.292969.398438s-9.5625-.136719-14.292969-.398438c-48.308593-2.652343-93.050781-18.703124-130.5625-44.5-10.070312-6.917968-19.621093-14.546874-28.578125-22.8125-50.757812-46.769531-82.566406-113.820312-82.566406-188.289062 0-141.386719 114.613281-256 256-256s256 114.613281 256 256zm0 0" fill="#dd3d88"/><path d="m111.144531 112.617188v354.484374c-10.070312-6.917968-19.621093-14.546874-28.578125-22.8125l-.007812-316.433593v-15.238281zm0 0" fill="#f98c3c"/><path d="m96.855469 145.347656c-36.144531 0-65.449219-29.304687-65.449219-65.453125v-45.136719c36.144531 0 65.449219 29.304688 65.449219 65.449219zm0 0" fill="#fbcd58"/><path d="m96.855469 223.585938c-36.144531 0-65.449219-29.300782-65.449219-65.449219v-45.136719c36.144531 0 65.449219 29.300781 65.449219 65.449219zm0 0" fill="#f98c3c"/><path d="m96.855469 301.828125c-36.144531 0-65.449219-29.304687-65.449219-65.453125v-45.136719c36.144531 0 65.449219 29.300781 65.449219 65.449219zm0 0" fill="#fbcd58"/><path d="m96.855469 145.347656c36.148437 0 65.453125-29.304687 65.453125-65.453125v-45.136719c-36.148438 0-65.449219 29.304688-65.449219 65.449219v45.140625zm0 0" fill="#f98c3c"/><path d="m96.855469 223.585938c36.148437 0 65.453125-29.300782 65.453125-65.449219v-45.136719c-36.148438 0-65.449219 29.300781-65.449219 65.449219v45.136719zm0 0" fill="#fbcd58"/><path d="m96.855469 301.828125c36.148437 0 65.453125-29.304687 65.453125-65.453125v-45.136719c-36.148438 0-65.449219 29.300781-65.449219 65.449219v45.140625zm0 0" fill="#f98c3c"/><path d="m96.855469 380.066406c-36.144531 0-65.449219-29.300781-65.449219-65.449218v-45.140626c36.144531 0 65.449219 29.304688 65.449219 65.453126zm0 0" fill="#f98c3c"/><path d="m96.855469 380.066406c36.148437 0 65.453125-29.300781 65.453125-65.449218v-45.140626c-36.148438 0-65.449219 29.304688-65.449219 65.453126v45.136718zm0 0" fill="#fbcd58"/><path d="m241.699219 91.71875v419.882812c4.734375.261719 9.5.398438 14.292969.398438 4.796874 0 9.5625-.136719 14.296874-.398438l.007813-404.648437v-15.234375zm0 0" fill="#f98c3c"/><path d="m255.996094 124.449219c36.148437 0 65.453125-29.304688 65.453125-65.453125v-45.136719c-36.148438 0-65.453125 29.300781-65.453125 65.449219zm0 0" fill="#fbcd58"/><path d="m255.996094 202.6875c36.148437 0 65.453125-29.304688 65.453125-65.449219v-45.140625c-36.148438 0-65.453125 29.304688-65.453125 65.449219zm0 0" fill="#f98c3c"/><path d="m255.996094 280.929688c36.148437 0 65.453125-29.304688 65.453125-65.453126v-45.136718c-36.148438 0-65.453125 29.300781-65.453125 65.449218zm0 0" fill="#fbcd58"/><path d="m255.996094 124.449219c-36.144532 0-65.449219-29.304688-65.449219-65.453125v-45.136719c36.144531 0 65.449219 29.300781 65.449219 65.449219zm0 0" fill="#f98c3c"/><path d="m255.996094 202.6875c-36.144532 0-65.449219-29.304688-65.449219-65.449219v-45.140625c36.144531 0 65.449219 29.304688 65.449219 65.449219zm0 0" fill="#fbcd58"/><path d="m255.996094 280.929688c-36.144532 0-65.449219-29.304688-65.449219-65.453126v-45.136718c36.144531 0 65.449219 29.300781 65.449219 65.449218zm0 0" fill="#f98c3c"/><path d="m255.996094 359.167969c36.148437 0 65.453125-29.304688 65.453125-65.449219v-45.140625c-36.148438 0-65.453125 29.304687-65.453125 65.453125zm0 0" fill="#f98c3c"/><path d="m255.996094 359.167969c-36.144532 0-65.449219-29.304688-65.449219-65.449219v-45.140625c36.144531 0 65.449219 29.304687 65.449219 65.453125zm0 0" fill="#fbcd58"/><path d="m429.433594 112.617188v331.671874c-8.964844 8.265626-18.515625 15.894532-28.589844 22.8125l-.011719-339.246093v-15.238281zm0 0" fill="#f98c3c"/><path d="m415.136719 145.347656c-36.148438 0-65.449219-29.304687-65.449219-65.453125v-45.136719c36.144531 0 65.449219 29.304688 65.449219 65.449219zm0 0" fill="#fbcd58"/><path d="m415.136719 223.585938c-36.148438 0-65.449219-29.300782-65.449219-65.449219v-45.136719c36.144531 0 65.449219 29.300781 65.449219 65.449219zm0 0" fill="#f98c3c"/><path d="m415.136719 301.828125c-36.148438 0-65.449219-29.304687-65.449219-65.453125v-45.136719c36.144531 0 65.449219 29.300781 65.449219 65.449219zm0 0" fill="#fbcd58"/><path d="m415.136719 145.347656c36.148437 0 65.453125-29.304687 65.453125-65.453125v-45.136719c-36.148438 0-65.453125 29.304688-65.453125 65.449219zm0 0" fill="#f98c3c"/><path d="m415.136719 223.585938c36.148437 0 65.453125-29.300782 65.453125-65.449219v-45.136719c-36.148438 0-65.453125 29.300781-65.453125 65.449219zm0 0" fill="#fbcd58"/><path d="m415.136719 301.828125c36.148437 0 65.453125-29.304687 65.453125-65.453125v-45.136719c-36.148438 0-65.453125 29.300781-65.453125 65.449219zm0 0" fill="#f98c3c"/><path d="m415.136719 380.066406c-36.148438 0-65.449219-29.300781-65.449219-65.449218v-45.140626c36.144531 0 65.449219 29.304688 65.449219 65.453126zm0 0" fill="#f98c3c"/><path d="m415.136719 380.066406c36.148437 0 65.453125-29.300781 65.453125-65.449218v-45.140626c-36.148438 0-65.453125 29.304688-65.453125 65.453126zm0 0" fill="#fbcd58"/></svg>