<svg height="512pt" viewBox="0 0 512 512" width="512pt" xmlns="http://www.w3.org/2000/svg"><path d="m512 256c0 113.078125-73.320312 209.042969-175.011719 242.917969-25.453125 8.484375-52.683593 13.082031-80.988281 13.082031-11.003906 0-21.839844-.699219-32.484375-2.046875-16.71875-2.113281-32.9375-5.851563-48.496094-11.035156-.007812.011719-.007812 0-.007812 0-101.691407-33.875-175.011719-129.839844-175.011719-242.917969 0-141.386719 114.613281-256 256-256s256 114.613281 256 256zm0 0" fill="#fbcd58"/><path d="m67.917969 57.484375h36.214843c46.746094 0 84.644532 37.898437 84.644532 84.648437h-36.214844c-46.75 0-84.644531-37.898437-84.644531-84.648437zm0 0" fill="#319962"/><path d="m255.996094 0c-29.140625 16.867188-48.761719 48.355469-48.761719 84.449219s19.621094 67.582031 48.761719 84.449219c29.144531-16.867188 48.765625-48.355469 48.765625-84.449219s-19.621094-67.582031-48.765625-84.449219zm0 0" fill="#319962"/><path d="m94.96875 29.355469h48.25c62.285156 0 112.777344 50.492187 112.777344 112.777343h-48.25c-62.285156 0-112.777344-50.492187-112.777344-112.777343zm0 0" fill="#6dbb59"/><path d="m444.078125 57.484375h-36.214844c-46.75 0-84.644531 37.898437-84.644531 84.648437h36.214844c46.746094 0 84.644531-37.898437 84.644531-84.648437zm0 0" fill="#319962"/><path d="m417.023438 29.355469h-48.25c-62.285157 0-112.777344 50.492187-112.777344 112.777343h48.253906c62.285156 0 112.773438-50.492187 112.773438-112.777343zm0 0" fill="#6dbb59"/><path d="m456.296875 242.070312c0 81.796876-49.027344 200.539063-119.308594 256.847657-25.453125 8.484375-52.683593 13.082031-80.988281 13.082031s-55.535156-4.597656-80.988281-13.082031c-70.28125-56.308594-119.308594-175.050781-119.308594-256.847657 0-110.621093 89.671875-111.792968 200.296875-111.792968s200.296875 1.171875 200.296875 111.792968zm0 0" fill="#dd3d88"/><path d="m156.921875 242.070312c0 87.617188 27.828125 217.601563 66.59375 267.882813-16.71875-2.113281-32.9375-5.851563-48.496094-11.035156-.007812.011719-.007812 0-.007812 0-70.28125-56.320313-119.308594-175.050781-119.308594-256.847657 0-110.621093 89.683594-111.792968 200.296875-111.792968-54.722656 0-99.078125 1.171875-99.078125 111.792968zm0 0" fill="#c12038"/><path d="m348.484375 245.535156c-13.832031 0-24.261719-14.671875-24.261719-34.128906 0-19.453125 10.429688-34.125 24.261719-34.125s24.261719 14.671875 24.261719 34.125c0 19.457031-10.429688 34.128906-24.261719 34.128906zm0 0" fill="#c12038"/><path d="m363.28125 211.40625c0-13.621094-6.625-24.664062-14.796875-24.664062s-14.796875 11.042968-14.796875 24.664062 6.625 24.664062 14.796875 24.664062 14.796875-11.042968 14.796875-24.664062zm0 0" fill="#3d3d3d"/><path d="m255.996094 245.535156c-13.832032 0-24.261719-14.671875-24.261719-34.128906 0-19.453125 10.429687-34.125 24.261719-34.125 13.832031 0 24.261718 14.671875 24.261718 34.125 0 19.457031-10.429687 34.128906-24.261718 34.128906zm0 0" fill="#c12038"/><path d="m270.792969 211.40625c0-13.621094-6.625-24.664062-14.796875-24.664062s-14.796875 11.042968-14.796875 24.664062 6.625 24.664062 14.796875 24.664062 14.796875-11.042968 14.796875-24.664062zm0 0" fill="#3d3d3d"/><path d="m163.507812 245.535156c-13.832031 0-24.261718-14.671875-24.261718-34.128906 0-19.453125 10.429687-34.125 24.261718-34.125 13.832032 0 24.261719 14.671875 24.261719 34.125 0 19.457031-10.429687 34.128906-24.261719 34.128906zm0 0" fill="#c12038"/><path d="m178.304688 211.40625c0-13.621094-6.625-24.664062-14.796876-24.664062-8.171874 0-14.796874 11.042968-14.796874 24.664062s6.625 24.664062 14.796874 24.664062c8.171876 0 14.796876-11.042968 14.796876-24.664062zm0 0" fill="#3d3d3d"/><path d="m348.484375 409.433594c-13.832031 0-24.261719-14.671875-24.261719-34.128906 0-19.453126 10.429688-34.125 24.261719-34.125s24.261719 14.671874 24.261719 34.125c0 19.457031-10.429688 34.128906-24.261719 34.128906zm0 0" fill="#c12038"/><path d="m363.28125 375.304688c0-13.621094-6.625-24.660157-14.796875-24.660157s-14.796875 11.039063-14.796875 24.660157c0 13.625 6.625 24.664062 14.796875 24.664062s14.796875-11.039062 14.796875-24.664062zm0 0" fill="#3d3d3d"/><path d="m255.996094 409.433594c-13.832032 0-24.261719-14.671875-24.261719-34.128906 0-19.453126 10.429687-34.125 24.261719-34.125 13.832031 0 24.261718 14.671874 24.261718 34.125 0 19.457031-10.429687 34.128906-24.261718 34.128906zm0 0" fill="#c12038"/><path d="m270.792969 375.304688c0-13.621094-6.625-24.660157-14.796875-24.660157s-14.796875 11.039063-14.796875 24.660157c0 13.625 6.625 24.664062 14.796875 24.664062s14.796875-11.039062 14.796875-24.664062zm0 0" fill="#3d3d3d"/><path d="m163.507812 409.433594c-13.832031 0-24.261718-14.671875-24.261718-34.128906 0-19.453126 10.429687-34.125 24.261718-34.125 13.832032 0 24.261719 14.671874 24.261719 34.125 0 19.457031-10.429687 34.128906-24.261719 34.128906zm0 0" fill="#c12038"/><path d="m178.304688 375.304688c0-13.621094-6.625-24.660157-14.796876-24.660157-8.171874 0-14.796874 11.039063-14.796874 24.660157 0 13.625 6.625 24.664062 14.796874 24.664062 8.171876 0 14.796876-11.039062 14.796876-24.664062zm0 0" fill="#3d3d3d"/><path d="m302.242188 327.484375c-13.832032 0-24.261719-14.671875-24.261719-34.128906 0-19.453125 10.429687-34.125 24.261719-34.125 13.828124 0 24.261718 14.671875 24.261718 34.125 0 19.457031-10.433594 34.128906-24.261718 34.128906zm0 0" fill="#c12038"/><path d="m317.039062 293.355469c0-13.621094-6.625-24.664063-14.796874-24.664063-8.175782 0-14.800782 11.042969-14.800782 24.664063 0 13.621093 6.625 24.664062 14.800782 24.664062 8.171874 0 14.796874-11.042969 14.796874-24.664062zm0 0" fill="#3d3d3d"/><path d="m209.75 327.484375c-13.828125 0-24.257812-14.671875-24.257812-34.128906 0-19.453125 10.429687-34.125 24.257812-34.125 13.832031 0 24.261719 14.671875 24.261719 34.125.003906 19.457031-10.429688 34.128906-24.261719 34.128906zm0 0" fill="#c12038"/><path d="m224.550781 293.355469c0-13.621094-6.625-24.664063-14.796875-24.664063s-14.800781 11.042969-14.800781 24.664063c0 13.621093 6.628906 24.664062 14.800781 24.664062s14.796875-11.042969 14.796875-24.664062zm0 0" fill="#3d3d3d"/><path d="m394.730469 327.484375c-13.832031 0-24.261719-14.671875-24.261719-34.128906 0-19.453125 10.429688-34.125 24.261719-34.125 13.828125 0 24.261719 14.671875 24.261719 34.125 0 19.457031-10.433594 34.128906-24.261719 34.128906zm0 0" fill="#c12038"/><path d="m409.527344 293.355469c0-13.621094-6.625-24.664063-14.796875-24.664063-8.175781 0-14.800781 11.042969-14.800781 24.664063 0 13.621093 6.625 24.664062 14.800781 24.664062 8.171875 0 14.796875-11.042969 14.796875-24.664062zm0 0" fill="#3d3d3d"/><path d="m117.265625 327.484375c-13.832031 0-24.261719-14.671875-24.261719-34.128906 0-19.453125 10.429688-34.125 24.261719-34.125 13.828125 0 24.257813 14.671875 24.257813 34.125 0 19.457031-10.429688 34.128906-24.257813 34.128906zm0 0" fill="#c12038"/><path d="m132.0625 293.355469c0-13.621094-6.625-24.664063-14.796875-24.664063s-14.796875 11.042969-14.796875 24.664063c0 13.621093 6.625 24.664062 14.796875 24.664062s14.796875-11.042969 14.796875-24.664062zm0 0" fill="#3d3d3d"/><path d="m302.242188 491.382812c-13.832032 0-24.261719-14.671874-24.261719-34.128906 0-19.453125 10.429687-34.125 24.261719-34.125 13.828124 0 24.261718 14.671875 24.261718 34.125 0 19.457032-10.433594 34.128906-24.261718 34.128906zm0 0" fill="#c12038"/><path d="m317.039062 457.253906c0-13.621094-6.625-24.660156-14.796874-24.660156-8.175782 0-14.800782 11.039062-14.800782 24.660156 0 13.625 6.625 24.664063 14.800782 24.664063 8.171874 0 14.796874-11.039063 14.796874-24.664063zm0 0" fill="#3d3d3d"/><path d="m209.75 491.382812c-13.828125 0-24.257812-14.671874-24.257812-34.128906 0-19.453125 10.429687-34.125 24.257812-34.125 13.832031 0 24.261719 14.671875 24.261719 34.125.003906 19.457032-10.429688 34.128906-24.261719 34.128906zm0 0" fill="#c12038"/><path d="m224.550781 457.253906c0-13.621094-6.625-24.660156-14.796875-24.660156s-14.800781 11.039062-14.800781 24.660156c0 13.625 6.628906 24.664063 14.800781 24.664063s14.796875-11.039063 14.796875-24.664063zm0 0" fill="#3d3d3d"/></svg>